<svg xmlns="http://www.w3.org/2000/svg" viewBox="0 0 200 72" role="img" aria-label="SasaPay">
  <rect x="1" y="1" width="198" height="70" rx="12" fill="#ffffff" stroke="#e2e8f0" stroke-width="2"/>
  <circle cx="34" cy="36" r="18" fill="#00a651"/>
  <path d="M27 41c0-3 2.5-4.2 6-4.2 3 0 4.6-.8 4.6-2.3 0-1.4-1.4-2.2-3.6-2.2-2.2 0-3.8.9-4.2 2.4l-3.5-1c.8-3 3.6-4.7 7.7-4.7 4.4 0 7.3 2 7.3 5.4 0 3.2-2.6 4.5-6.2 4.5-2.9 0-4.4.7-4.4 2.2 0 1.4 1.4 2.3 3.8 2.3 2.4 0 4-1 4.4-2.6l3.6 1c-.9 3.1-3.9 4.9-8.1 4.9-4.6 0-8.2-2-8.2-5.4z" fill="#ffffff"/>
  <text x="118" y="42" text-anchor="middle" font-family="Arial, Helvetica, sans-serif" font-size="22" font-weight="800" fill="#1e293b">Sasa<tspan fill="#00a651">Pay</tspan></text>
</svg>
